STARTFONT 2.1
FONT -DEC-Miriam-Bold-O-Normal--19-140-100-100-P-109-ISO8859-8
SIZE 14 100 100
FONTBOUNDINGBOX 18 19 0 -4

STARTPROPERTIES 26
FONTNAME_REGISTRY ""
FAMILY_NAME "Miriam"
FOUNDRY "DEC"
WEIGHT_NAME "Bold"
SLANT "O"
SETWIDTH_NAME "Normal"
ADD_STYLE_NAME ""
PIXEL_SIZE 19
RESOLUTION_X 100
RESOLUTION_Y 100
SPACING "P"
AVERAGE_WIDTH 109
CHARSET_REGISTRY "ISO8859"
CHARSET_ENCODING "8"
CHARSET_COLLECTIONS "ASCII ISO8859-8 "
FULL_NAME "Miriam Bold Oblique"
COPYRIGHT "Digital Israel"
CAP_HEIGHT 14
X_HEIGHT 10
_DEC_DEVICE_FONTNAMES "PS=Miriam-BoldOblique-ISOLatinHebrew"
QUAD_WIDTH 11
POINT_SIZE 140
WEIGHT 10
DEFAULT_CHAR 0
FONT_DESCENT 4
FONT_ASCENT 17
ENDPROPERTIES

CHARS 152

STARTCHAR space
ENCODING 32
SWIDTH 257 0
DWIDTH 5 0
BBX 1 1 0 0
BITMAP
00
ENDCHAR

STARTCHAR exclam
ENCODING 33
SWIDTH 257 0
DWIDTH 5 0
BBX 5 14 1 0
BITMAP
38
38
38
30
30
30
70
60
60
60
00
E0
E0
E0
ENDCHAR

STARTCHAR quotedbl
ENCODING 34
SWIDTH 411 0
DWIDTH 8 0
BBX 6 6 2 8
BITMAP
6C
6C
6C
48
D8
D8
ENDCHAR

STARTCHAR numbersign
ENCODING 35
SWIDTH 617 0
DWIDTH 12 0
BBX 10 14 1 0
BITMAP
0D80
0D80
0D80
0900
7FC0
7FC0
1B00
1200
FF80
FF80
2400
6C00
6C00
6C00
ENDCHAR

STARTCHAR dollar
ENCODING 36
SWIDTH 566 0
DWIDTH 11 0
BBX 10 17 1 -2
BITMAP
0600
0600
1F40
3FC0
39C0
71C0
7000
3C00
1F00
0F80
0380
E180
F380
FF00
DE00
1800
1800
ENDCHAR

STARTCHAR percent
ENCODING 37
SWIDTH 823 0
DWIDTH 16 0
BBX 15 14 1 0
BITMAP
1C06
3E0C
6318
6330
6360
3EC0
1D80
0370
06F8
0D8C
198C
318C
60F8
C070
ENDCHAR

STARTCHAR ampersand
ENCODING 38
SWIDTH 720 0
DWIDTH 14 0
BBX 13 14 0 0
BITMAP
0780
0FC0
1CE0
1CE0
0FC0
0F98
1E38
3F78
73E0
E3C0
E1C0
F3E0
7F70
3E20
ENDCHAR

STARTCHAR quoteright
ENCODING 39
SWIDTH 206 0
DWIDTH 4 0
BBX 4 6 1 8
BITMAP
70
70
70
30
60
C0
ENDCHAR

STARTCHAR parenleft
ENCODING 40
SWIDTH 360 0
DWIDTH 7 0
BBX 6 16 1 -2
BITMAP
0C
1C
38
30
60
60
E0
C0
C0
C0
C0
E0
60
70
30
10
ENDCHAR

STARTCHAR parenright
ENCODING 41
SWIDTH 360 0
DWIDTH 7 0
BBX 6 16 0 -2
BITMAP
20
30
38
18
0C
0C
0C
0C
0C
0C
1C
18
30
70
E0
C0
ENDCHAR

STARTCHAR asterisk
ENCODING 42
SWIDTH 360 0
DWIDTH 7 0
BBX 5 6 2 8
BITMAP
50
70
F8
F8
70
50
ENDCHAR

STARTCHAR plus
ENCODING 43
SWIDTH 617 0
DWIDTH 12 0
BBX 10 10 1 0
BITMAP
0600
0600
0600
0C00
FFC0
FFC0
0C00
1800
1800
1800
ENDCHAR

STARTCHAR comma
ENCODING 44
SWIDTH 257 0
DWIDTH 5 0
BBX 4 6 0 -3
BITMAP
70
70
70
60
C0
80
ENDCHAR

STARTCHAR minus
ENCODING 45
SWIDTH 617 0
DWIDTH 12 0
BBX 9 2 2 4
BITMAP
FF80
FF80
ENDCHAR

STARTCHAR period
ENCODING 46
SWIDTH 309 0
DWIDTH 6 0
BBX 3 3 1 0
BITMAP
E0
E0
E0
ENDCHAR

STARTCHAR slash
ENCODING 47
SWIDTH 566 0
DWIDTH 11 0
BBX 12 16 0 -2
BITMAP
0010
0030
0060
00E0
00C0
0180
0300
0600
0E00
0C00
1800
3000
7000
6000
C000
8000
ENDCHAR

STARTCHAR zero
ENCODING 48
SWIDTH 566 0
DWIDTH 11 0
BBX 10 14 1 0
BITMAP
0F00
3F80
39C0
70C0
70C0
60C0
E1C0
E1C0
C180
C380
C380
E700
7F00
3C00
ENDCHAR

STARTCHAR one
ENCODING 49
SWIDTH 566 0
DWIDTH 11 0
BBX 8 14 2 0
BITMAP
3F
3F
0E
0E
0E
1C
1C
1C
1C
38
38
38
FE
FE
ENDCHAR

STARTCHAR two
ENCODING 50
SWIDTH 566 0
DWIDTH 11 0
BBX 10 14 1 0
BITMAP
0F80
1FC0
39C0
71C0
7180
0380
0700
0E00
1C00
3800
7180
E380
FF00
FF00
ENDCHAR

STARTCHAR three
ENCODING 51
SWIDTH 566 0
DWIDTH 11 0
BBX 10 14 0 0
BITMAP
0F00
1F80
3BC0
31C0
01C0
0380
1E00
1F00
0780
0380
C380
E700
FF00
7C00
ENDCHAR

STARTCHAR four
ENCODING 52
SWIDTH 566 0
DWIDTH 11 0
BBX 10 14 0 0
BITMAP
01C0
03C0
07C0
0DC0
1D80
1980
3180
6380
FFC0
FFC0
0300
0300
0F80
0F80
ENDCHAR

STARTCHAR five
ENCODING 53
SWIDTH 566 0
DWIDTH 11 0
BBX 10 14 1 0
BITMAP
1FC0
1FC0
1800
3800
3000
3F00
7F80
73C0
01C0
01C0
E180
E380
FF00
7E00
ENDCHAR

STARTCHAR six
ENCODING 54
SWIDTH 566 0
DWIDTH 11 0
BBX 10 14 0 0
BITMAP
01C0
0380
0700
0E00
1C00
3F00
7F80
7380
E1C0
E1C0
E1C0
7380
7F80
3E00
ENDCHAR

STARTCHAR seven
ENCODING 55
SWIDTH 566 0
DWIDTH 11 0
BBX 10 14 1 0
BITMAP
7FC0
7FC0
61C0
6180
0380
0700
0E00
0E00
1C00
3800
7000
7000
E000
E000
ENDCHAR

STARTCHAR eight
ENCODING 56
SWIDTH 566 0
DWIDTH 11 0
BBX 10 14 0 0
BITMAP
0F00
1F80
39C0
30C0
39C0
1F80
3F00
7380
E1C0
E1C0
E1C0
7380
7F80
3E00
ENDCHAR

STARTCHAR nine
ENCODING 57
SWIDTH 566 0
DWIDTH 11 0
BBX 10 14 1 0
BITMAP
0E00
3F80
7380
61C0
E1C0
E1C0
F3C0
7F80
3F00
0E00
1C00
3800
7000
E000
ENDCHAR

STARTCHAR colon
ENCODING 58
SWIDTH 309 0
DWIDTH 6 0
BBX 4 10 1 0
BITMAP
70
70
70
00
00
00
00
E0
E0
E0
ENDCHAR

STARTCHAR semicolon
ENCODING 59
SWIDTH 257 0
DWIDTH 5 0
BBX 5 13 0 -3
BITMAP
38
38
38
00
00
00
00
70
70
70
60
C0
80
ENDCHAR

STARTCHAR less
ENCODING 60
SWIDTH 617 0
DWIDTH 12 0
BBX 9 10 2 0
BITMAP
0180
0780
1E00
7800
E000
7000
3800
1C00
0E00
0600
ENDCHAR

STARTCHAR equal
ENCODING 61
SWIDTH 617 0
DWIDTH 12 0
BBX 9 5 1 2
BITMAP
7F80
7F80
0000
FF00
FF00
ENDCHAR

STARTCHAR greater
ENCODING 62
SWIDTH 617 0
DWIDTH 12 0
BBX 10 10 0 0
BITMAP
3000
3C00
0E00
0780
01C0
0780
0E00
3800
F000
C000
ENDCHAR

STARTCHAR question
ENCODING 63
SWIDTH 566 0
DWIDTH 11 0
BBX 9 14 2 0
BITMAP
3E00
7F00
E380
E380
E380
0700
0E00
1C00
3800
3800
0000
7000
7000
7000
ENDCHAR

STARTCHAR at
ENCODING 64
SWIDTH 823 0
DWIDTH 16 0
BBX 14 14 1 0
BITMAP
0FE0
1C78
3008
63AC
476C
CC64
9844
98C4
90CC
DBB8
CEF0
6000
79E0
1F80
ENDCHAR

STARTCHAR A
ENCODING 65
SWIDTH 669 0
DWIDTH 13 0
BBX 13 14 0 0
BITMAP
03C0
03C0
01C0
03C0
07E0
06E0
0EE0
0C60
1FE0
3FF0
3870
7070
F8F8
F8F8
ENDCHAR

STARTCHAR B
ENCODING 66
SWIDTH 617 0
DWIDTH 12 0
BBX 11 14 0 0
BITMAP
3F80
3FC0
1CE0
18E0
38E0
39C0
3F00
3FC0
31E0
70E0
70E0
71E0
FFC0
FF80
ENDCHAR

STARTCHAR C
ENCODING 67
SWIDTH 720 0
DWIDTH 14 0
BBX 14 14 1 0
BITMAP
07CC
1FFC
3E7C
381C
7000
E000
E000
E000
E000
E038
7038
78F0
3FE0
0F80
ENDCHAR

STARTCHAR D
ENCODING 68
SWIDTH 720 0
DWIDTH 14 0
BBX 14 14 0 0
BITMAP
3FE0
3FF8
1C38
1C1C
181C
381C
381C
381C
381C
3038
7070
71F0
FFE0
FF80
ENDCHAR

STARTCHAR E
ENCODING 69
SWIDTH 566 0
DWIDTH 11 0
BBX 12 14 0 0
BITMAP
3FF0
3FF0
1C60
1C60
3800
3800
3F80
3F80
3800
7000
70C0
71C0
FF80
FF80
ENDCHAR

STARTCHAR F
ENCODING 70
SWIDTH 566 0
DWIDTH 11 0
BBX 11 14 0 0
BITMAP
3FE0
3FE0
1C60
1C60
1C00
3800
3F80
3F80
3800
7000
7000
7000
F800
F800
ENDCHAR

STARTCHAR G
ENCODING 71
SWIDTH 771 0
DWIDTH 15 0
BBX 14 14 1 0
BITMAP
07CC
1FFC
3E7C
381C
7000
E000
E000
E1FC
E1FC
E038
7038
7878
3FF0
0FB0
ENDCHAR

STARTCHAR H
ENCODING 72
SWIDTH 720 0
DWIDTH 14 0
BBX 15 14 0 0
BITMAP
3E3E
3E3E
1C1C
1C1C
1818
3838
3FF8
3FF8
3830
3030
7070
7070
F8F8
F8F8
ENDCHAR

STARTCHAR I
ENCODING 73
SWIDTH 309 0
DWIDTH 6 0
BBX 7 14 0 0
BITMAP
3E
3E
1C
1C
18
38
38
38
30
70
70
70
F8
F8
ENDCHAR

STARTCHAR J
ENCODING 74
SWIDTH 514 0
DWIDTH 10 0
BBX 11 14 0 0
BITMAP
03E0
03E0
01C0
01C0
0180
0380
0380
0380
0300
0700
E700
E700
7E00
3C00
ENDCHAR

STARTCHAR K
ENCODING 75
SWIDTH 720 0
DWIDTH 14 0
BBX 15 14 0 0
BITMAP
3E7E
3E7E
1C38
1C70
1CE0
1BC0
3F00
3F80
3BC0
31C0
70E0
7070
F9F8
F9F8
ENDCHAR

STARTCHAR L
ENCODING 76
SWIDTH 514 0
DWIDTH 10 0
BBX 9 14 0 0
BITMAP
3E00
3E00
1C00
1C00
3800
3800
3800
3800
3800
7000
7180
7180
FF80
FF80
ENDCHAR

STARTCHAR M
ENCODING 77
SWIDTH 874 0
DWIDTH 17 0
BBX 18 14 0 0
BITMAP
3E07C0
3E07C0
1E0F80
1F0F80
1F1F00
3B1B00
3B3300
3B3700
33F700
73C600
73CE00
71CE00
F99F00
F99F00
ENDCHAR

STARTCHAR N
ENCODING 78
SWIDTH 771 0
DWIDTH 15 0
BBX 16 14 0 0
BITMAP
381F
3C1F
1C0E
1E0C
1F0C
1F9C
3B9C
39D8
31D8
70F8
70F8
7078
F830
F830
ENDCHAR

STARTCHAR O
ENCODING 79
SWIDTH 771 0
DWIDTH 15 0
BBX 14 14 1 0
BITMAP
07C0
1FF0
3E78
3838
701C
E01C
E01C
E01C
E01C
E038
7070
79F0
3FE0
0F80
ENDCHAR

STARTCHAR P
ENCODING 80
SWIDTH 566 0
DWIDTH 11 0
BBX 12 14 0 0
BITMAP
3F80
3FE0
1CF0
1C70
1870
3870
38E0
3FC0
3F00
3000
7000
7000
F800
F800
ENDCHAR

STARTCHAR Q
ENCODING 81
SWIDTH 823 0
DWIDTH 16 0
BBX 14 14 1 0
BITMAP
07C0
1FF0
3E78
3838
701C
E01C
E01C
FE1C
FF9C
E7F8
70F0
78EC
3FFC
0FBC
ENDCHAR

STARTCHAR R
ENCODING 82
SWIDTH 617 0
DWIDTH 12 0
BBX 13 14 0 0
BITMAP
3FC0
3FF0
1C78
1C38
3C38
3870
38E0
3FC0
3F00
7700
7380
71C0
F9F0
F9F0
ENDCHAR

STARTCHAR S
ENCODING 83
SWIDTH 566 0
DWIDTH 11 0
BBX 11 14 0 0
BITMAP
0F60
1FE0
3DE0
38C0
3800
3C00
1F00
0F80
03C0
01C0
61C0
F3C0
FF80
DF00
ENDCHAR

STARTCHAR T
ENCODING 84
SWIDTH 617 0
DWIDTH 12 0
BBX 13 14 1 0
BITMAP
7FF8
7FF8
C730
C730
0700
0E00
0E00
0E00
0E00
0C00
1C00
1C00
7F00
7F00
ENDCHAR

STARTCHAR U
ENCODING 85
SWIDTH 669 0
DWIDTH 13 0
BBX 13 14 1 0
BITMAP
7CF8
7CF8
3870
3870
3060
70E0
70E0
70E0
E0C0
E1C0
E1C0
F380
7F80
3E00
ENDCHAR

STARTCHAR V
ENCODING 86
SWIDTH 617 0
DWIDTH 12 0
BBX 13 14 1 0
BITMAP
F8F8
F8F8
7070
70E0
70E0
71C0
31C0
3B80
3B00
3F00
1E00
1E00
1C00
1C00
ENDCHAR

STARTCHAR W
ENCODING 87
SWIDTH 874 0
DWIDTH 17 0
BBX 17 14 1 0
BITMAP
F9CF80
F9CF80
71C700
73C700
73CE00
73CC00
76DC00
76DC00
36D800
3CF000
38F000
38F000
38E000
38E000
ENDCHAR

STARTCHAR X
ENCODING 88
SWIDTH 720 0
DWIDTH 14 0
BBX 15 14 0 0
BITMAP
3E3E
3E3E
1C1C
0E38
0770
07E0
03C0
0780
0FC0
1DE0
38E0
7070
F8F8
F8F8
ENDCHAR

STARTCHAR Y
ENCODING 89
SWIDTH 669 0
DWIDTH 13 0
BBX 13 14 1 0
BITMAP
F8F8
F8F8
7070
38E0
39C0
3B80
1F00
1E00
0E00
0C00
0C00
1C00
3E00
3E00
ENDCHAR

STARTCHAR Z
ENCODING 90
SWIDTH 566 0
DWIDTH 11 0
BBX 12 14 0 0
BITMAP
3FF0
3FF0
30F0
31E0
03C0
0380
0700
0E00
1C00
3800
78C0
F0C0
FFC0
FFC0
ENDCHAR

STARTCHAR bracketleft
ENCODING 91
SWIDTH 360 0
DWIDTH 7 0
BBX 8 17 0 -3
BITMAP
1F
1F
18
18
18
30
30
30
30
30
70
60
60
60
E0
F8
F8
ENDCHAR

STARTCHAR backslash
ENCODING 92
SWIDTH 617 0
DWIDTH 12 0
BBX 4 14 4 0
BITMAP
C0
C0
C0
C0
40
60
60
60
60
20
30
30
30
30
ENDCHAR

STARTCHAR bracketright
ENCODING 93
SWIDTH 360 0
DWIDTH 7 0
BBX 8 17 0 -3
BITMAP
1F
1F
03
03
06
06
06
06
0C
0C
0C
0C
18
18
18
F8
F8
ENDCHAR

STARTCHAR asciicircum
ENCODING 94
SWIDTH 669 0
DWIDTH 13 0
BBX 10 9 1 5
BITMAP
0200
0700
0F00
0D00
1980
3180
6180
E0C0
C0C0
ENDCHAR

STARTCHAR underscore
ENCODING 95
SWIDTH 463 0
DWIDTH 9 0
BBX 9 2 0 -3
BITMAP
FF80
FF80
ENDCHAR

STARTCHAR quoteleft
ENCODING 96
SWIDTH 206 0
DWIDTH 4 0
BBX 4 6 1 8
BITMAP
30
60
C0
E0
E0
E0
ENDCHAR

STARTCHAR a
ENCODING 97
SWIDTH 617 0
DWIDTH 12 0
BBX 12 10 0 0
BITMAP
0FB0
3FF0
79F0
70E0
E0E0
E0C0
E1C0
F3C0
7FE0
3EE0
ENDCHAR

STARTCHAR b
ENCODING 98
SWIDTH 617 0
DWIDTH 12 0
BBX 12 14 0 0
BITMAP
3C00
3C00
1C00
1800
3BC0
3FE0
3CF0
3870
7070
7070
70E0
71E0
FFC0
EF80
ENDCHAR

STARTCHAR c
ENCODING 99
SWIDTH 566 0
DWIDTH 11 0
BBX 11 10 0 0
BITMAP
0F60
3FE0
79E0
7000
6000
E000
E1C0
F1C0
7F80
3E00
ENDCHAR

STARTCHAR d
ENCODING 100
SWIDTH 617 0
DWIDTH 12 0
BBX 12 14 0 0
BITMAP
00F0
00F0
0070
0070
0F60
3FE0
79E0
70E0
60C0
E1C0
E1C0
F3C0
7FE0
3DE0
ENDCHAR

STARTCHAR e
ENCODING 101
SWIDTH 566 0
DWIDTH 11 0
BBX 11 10 0 0
BITMAP
0F80
3FC0
79E0
70E0
FFE0
FFC0
E000
F1C0
7F80
3E00
ENDCHAR

STARTCHAR f
ENCODING 102
SWIDTH 309 0
DWIDTH 6 0
BBX 7 14 0 0
BITMAP
06
0E
1E
18
7E
7E
38
38
30
70
70
70
F8
F8
ENDCHAR

STARTCHAR g
ENCODING 103
SWIDTH 617 0
DWIDTH 12 0
BBX 13 14 0 -4
BITMAP
0F78
3FF0
79E0
70E0
E0E0
E0C0
E1C0
F3C0
7FC0
3D80
0180
E380
FF00
7E00
ENDCHAR

STARTCHAR h
ENCODING 104
SWIDTH 617 0
DWIDTH 12 0
BBX 11 14 0 0
BITMAP
3C00
3C00
1C00
1800
1BC0
3FE0
3DE0
38E0
30C0
30C0
71C0
71C0
FBE0
FBE0
ENDCHAR

STARTCHAR i
ENCODING 105
SWIDTH 309 0
DWIDTH 6 0
BBX 6 14 0 0
BITMAP
1C
1C
1C
00
78
78
38
38
30
70
70
70
F8
F8
ENDCHAR

STARTCHAR j
ENCODING 106
SWIDTH 309 0
DWIDTH 6 0
BBX 7 18 0 -4
BITMAP
0E
0E
0E
00
3E
3E
1C
1C
1C
38
38
38
38
38
70
70
E0
C0
ENDCHAR

STARTCHAR k
ENCODING 107
SWIDTH 566 0
DWIDTH 11 0
BBX 12 14 0 0
BITMAP
3C00
3C00
1C00
1C00
18F0
39E0
3BC0
3F00
3E00
7600
7700
7380
FBC0
FBC0
ENDCHAR

STARTCHAR l
ENCODING 108
SWIDTH 309 0
DWIDTH 6 0
BBX 6 14 0 0
BITMAP
3C
3C
1C
1C
18
38
38
38
30
70
70
70
F8
F8
ENDCHAR

STARTCHAR m
ENCODING 109
SWIDTH 926 0
DWIDTH 18 0
BBX 17 10 0 0
BITMAP
73CF00
7FFF80
3CF380
38E380
30C300
71C700
71C700
71C700
FBEF80
FBEF80
ENDCHAR

STARTCHAR n
ENCODING 110
SWIDTH 617 0
DWIDTH 12 0
BBX 11 10 0 0
BITMAP
7B80
7FC0
3DE0
38E0
30C0
71C0
71C0
71C0
FBE0
FBE0
ENDCHAR

STARTCHAR o
ENCODING 111
SWIDTH 566 0
DWIDTH 11 0
BBX 11 10 0 0
BITMAP
0F80
3FC0
79E0
70E0
E0E0
E0E0
E1C0
F3C0
7F80
3E00
ENDCHAR

STARTCHAR p
ENCODING 112
SWIDTH 617 0
DWIDTH 12 0
BBX 13 14 0 -4
BITMAP
3CE0
3FF0
1E78
1C38
1C38
1838
3870
3CF0
3FE0
33C0
7000
7000
F800
F800
ENDCHAR

STARTCHAR q
ENCODING 113
SWIDTH 617 0
DWIDTH 12 0
BBX 13 14 0 -4
BITMAP
0F78
3FF8
79E0
70E0
E0E0
E1C0
E1C0
F3C0
7F80
3D80
0380
0300
0780
0780
ENDCHAR

STARTCHAR r
ENCODING 114
SWIDTH 411 0
DWIDTH 8 0
BBX 8 10 0 0
BITMAP
77
7F
3F
38
30
30
70
70
F8
F8
ENDCHAR

STARTCHAR s
ENCODING 115
SWIDTH 463 0
DWIDTH 9 0
BBX 9 10 0 0
BITMAP
1D80
3F80
7380
7000
7E00
3F00
0700
E700
FE00
DC00
ENDCHAR

STARTCHAR t
ENCODING 116
SWIDTH 309 0
DWIDTH 6 0
BBX 6 14 1 0
BITMAP
38
38
38
30
FC
FC
70
70
70
60
E0
E0
F0
F0
ENDCHAR

STARTCHAR u
ENCODING 117
SWIDTH 617 0
DWIDTH 12 0
BBX 10 10 1 0
BITMAP
F3C0
F3C0
71C0
6180
6180
E380
E380
F700
7F80
3B80
ENDCHAR

STARTCHAR v
ENCODING 118
SWIDTH 566 0
DWIDTH 11 0
BBX 11 10 1 0
BITMAP
F9E0
F9E0
71C0
7380
7300
3700
3600
3C00
3C00
3800
ENDCHAR

STARTCHAR w
ENCODING 119
SWIDTH 823 0
DWIDTH 16 0
BBX 15 10 1 0
BITMAP
FB3E
FB3E
671C
6718
6FB8
6DB0
79E0
79E0
71C0
71C0
ENDCHAR

STARTCHAR x
ENCODING 120
SWIDTH 617 0
DWIDTH 12 0
BBX 13 10 0 0
BITMAP
7DF8
7DF8
38E0
1DC0
0F80
1F00
3B80
71C0
FBE0
FBE0
ENDCHAR

STARTCHAR y
ENCODING 121
SWIDTH 514 0
DWIDTH 10 0
BBX 12 14 0 -4
BITMAP
FDF0
FDF0
71C0
3180
3380
3300
3E00
3E00
1C00
1800
3800
3000
F800
F800
ENDCHAR

STARTCHAR z
ENCODING 122
SWIDTH 463 0
DWIDTH 9 0
BBX 9 10 0 0
BITMAP
3F80
7F80
6380
0700
1E00
3C00
7000
E300
FF00
FF00
ENDCHAR

STARTCHAR braceleft
ENCODING 123
SWIDTH 309 0
DWIDTH 6 0
BBX 6 17 0 -3
BITMAP
0C
18
18
30
30
30
30
60
C0
60
60
60
60
C0
C0
C0
60
ENDCHAR

STARTCHAR bar
ENCODING 124
SWIDTH 617 0
DWIDTH 12 0
BBX 4 14 5 0
BITMAP
30
30
30
30
30
60
60
60
60
C0
C0
C0
C0
C0
ENDCHAR

STARTCHAR braceright
ENCODING 125
SWIDTH 360 0
DWIDTH 7 0
BBX 6 17 1 -3
BITMAP
18
0C
0C
0C
0C
18
18
18
0C
30
30
30
30
30
60
60
C0
ENDCHAR

STARTCHAR asciitilde
ENCODING 126
SWIDTH 669 0
DWIDTH 13 0
BBX 11 3 1 5
BITMAP
3C60
7FC0
C780
ENDCHAR

STARTCHAR cent
ENCODING 162
SWIDTH 566 0
DWIDTH 11 0
BBX 8 12 2 1
BITMAP
0C
0C
3D
7F
E7
E0
E0
E7
FE
7C
30
30
ENDCHAR

STARTCHAR sterling
ENCODING 163
SWIDTH 669 0
DWIDTH 13 0
BBX 11 14 1 0
BITMAP
0F60
1FE0
38E0
38E0
3800
1800
FF00
FF00
1800
39C0
39C0
31C0
FF80
FF00
ENDCHAR

STARTCHAR currency
ENCODING 164
SWIDTH 566 0
DWIDTH 11 0
BBX 11 9 0 1
BITMAP
6F60
7FE0
3180
60C0
60C0
60C0
3180
FFC0
DCC0
ENDCHAR

STARTCHAR yen
ENCODING 165
SWIDTH 720 0
DWIDTH 14 0
BBX 13 14 2 0
BITMAP
F8F8
F8F8
7070
30E0
30C0
F9E0
FBE0
1F00
FFC0
FFC0
0C00
1C00
3E00
3E00
ENDCHAR

STARTCHAR brokenbar
ENCODING 166
SWIDTH 617 0
DWIDTH 12 0
BBX 4 14 5 0
BITMAP
30
30
30
20
60
60
00
00
60
60
40
C0
C0
C0
ENDCHAR

STARTCHAR section
ENCODING 167
SWIDTH 514 0
DWIDTH 10 0
BBX 9 17 1 -3
BITMAP
0E00
1F00
3B80
3180
3800
1C00
3E00
7700
6300
7700
3E00
1C00
0E00
C600
CE00
FC00
7800
ENDCHAR

STARTCHAR dieresis
ENCODING 168
SWIDTH 463 0
DWIDTH 9 0
BBX 6 3 3 11
BITMAP
CC
CC
CC
ENDCHAR

STARTCHAR copyright
ENCODING 169
SWIDTH 823 0
DWIDTH 16 0
BBX 14 14 1 0
BITMAP
07E0
1C78
3018
63CC
464C
CC44
9804
9804
98CC
8D8C
C718
C030
71E0
3F80
ENDCHAR

STARTCHAR multiply
ENCODING 170
SWIDTH 617 0
DWIDTH 12 0
BBX 11 10 1 0
BITMAP
6060
70E0
39C0
1F80
0F00
1E00
3F00
7380
E1C0
C0C0
ENDCHAR

STARTCHAR guillemotleft
ENCODING 171
SWIDTH 411 0
DWIDTH 8 0
BBX 7 7 1 2
BITMAP
12
36
6C
D8
D8
6C
24
ENDCHAR

STARTCHAR logicalnot
ENCODING 172
SWIDTH 617 0
DWIDTH 12 0
BBX 9 6 1 1
BITMAP
FF80
FF80
0180
0100
0300
0300
ENDCHAR

STARTCHAR hyphen
ENCODING 173
SWIDTH 309 0
DWIDTH 6 0
BBX 4 2 1 5
BITMAP
F0
F0
ENDCHAR

STARTCHAR registered
ENCODING 174
SWIDTH 823 0
DWIDTH 16 0
BBX 14 14 1 0
BITMAP
07E0
1C78
3018
67CC
446C
CC64
88C4
8F84
990C
9198
D098
C030
71E0
3F80
ENDCHAR

STARTCHAR macron
ENCODING 175
SWIDTH 514 0
DWIDTH 10 0
BBX 7 2 3 12
BITMAP
FE
FE
ENDCHAR

STARTCHAR degree
ENCODING 176
SWIDTH 360 0
DWIDTH 7 0
BBX 6 6 1 8
BITMAP
38
6C
C4
8C
D8
70
ENDCHAR

STARTCHAR plusminus
ENCODING 177
SWIDTH 617 0
DWIDTH 12 0
BBX 10 11 1 0
BITMAP
0600
0600
0600
7FC0
7FC0
0C00
0C00
0C00
0000
FF80
FF80
ENDCHAR

STARTCHAR twosuperior
ENCODING 178
SWIDTH 309 0
DWIDTH 6 0
BBX 6 8 1 6
BITMAP
38
6C
4C
18
30
60
D8
F8
ENDCHAR

STARTCHAR threesuperior
ENCODING 179
SWIDTH 309 0
DWIDTH 6 0
BBX 6 8 1 6
BITMAP
38
6C
0C
38
10
18
B8
F0
ENDCHAR

STARTCHAR acute
ENCODING 180
SWIDTH 411 0
DWIDTH 8 0
BBX 6 4 2 10
BITMAP
08
3C
F0
40
ENDCHAR

STARTCHAR mu
ENCODING 181
SWIDTH 617 0
DWIDTH 12 0
BBX 12 14 0 -4
BITMAP
3CF0
3CF0
1C70
1860
1860
38E0
38E0
3DC0
7FE0
6EE0
6000
E000
C000
C000
ENDCHAR

STARTCHAR paragraph
ENCODING 182
SWIDTH 566 0
DWIDTH 11 0
BBX 10 17 2 -3
BITMAP
1FC0
7FC0
F980
F980
F980
F300
7300
3300
3300
2200
6600
6600
6600
6600
4400
CC00
CC00
ENDCHAR

STARTCHAR periodcentered
ENCODING 183
SWIDTH 257 0
DWIDTH 5 0
BBX 3 3 1 4
BITMAP
E0
E0
E0
ENDCHAR

STARTCHAR cedilla
ENCODING 184
SWIDTH 360 0
DWIDTH 7 0
BBX 4 4 1 -4
BITMAP
60
30
90
60
ENDCHAR

STARTCHAR onesuperior
ENCODING 185
SWIDTH 309 0
DWIDTH 6 0
BBX 4 8 2 6
BITMAP
70
30
30
30
60
60
60
F0
ENDCHAR

STARTCHAR divide
ENCODING 186
SWIDTH 617 0
DWIDTH 12 0
BBX 10 10 1 0
BITMAP
0600
0600
0600
0000
FFC0
FFC0
0000
1800
1800
1800
ENDCHAR

STARTCHAR guillemotright
ENCODING 187
SWIDTH 411 0
DWIDTH 8 0
BBX 7 7 1 2
BITMAP
48
6C
36
36
6C
D8
90
ENDCHAR

STARTCHAR onequarter
ENCODING 188
SWIDTH 823 0
DWIDTH 16 0
BBX 13 14 2 0
BITMAP
70C0
30C0
3180
3180
6300
6300
6630
F670
0CB0
0D20
1B60
1BF8
3060
30F0
ENDCHAR

STARTCHAR onehalf
ENCODING 189
SWIDTH 823 0
DWIDTH 16 0
BBX 13 14 2 0
BITMAP
70C0
30C0
3180
3180
6300
6300
6670
F6D8
0C98
0C30
1860
18C0
31B0
31F0
ENDCHAR

STARTCHAR threequarters
ENCODING 190
SWIDTH 823 0
DWIDTH 16 0
BBX 14 14 1 0
BITMAP
3860
6C60
0CC0
38C0
1180
1980
9B18
F338
0658
0690
0DB0
0DFC
1830
1878
ENDCHAR

STARTCHAR dblunderscore
ENCODING 223
SWIDTH 463 0
DWIDTH 9 0
BBX 9 8 0 -4
BITMAP
0000
0000
FF80
FF80
0000
0000
FF80
FF80
ENDCHAR

STARTCHAR aleph
ENCODING 224
SWIDTH 669 0
DWIDTH 13 0
BBX 13 13 0 0
BITMAP
0000
1CF0
1CF8
0E38
0E38
1F70
3FE0
33C0
7380
71C0
71C0
7CE0
7CE0
ENDCHAR

STARTCHAR beth
ENCODING 225
SWIDTH 566 0
DWIDTH 11 0
BBX 11 13 0 0
BITMAP
0000
1F80
1FC0
01C0
01C0
0380
0380
0380
0700
0700
0700
FFC0
FFC0
ENDCHAR

STARTCHAR gimmel
ENCODING 226
SWIDTH 566 0
DWIDTH 11 0
BBX 11 13 0 0
BITMAP
0000
03E0
03E0
00E0
00E0
01C0
01C0
01C0
03C0
0780
1F80
FB80
F380
ENDCHAR

STARTCHAR daleth
ENCODING 227
SWIDTH 617 0
DWIDTH 12 0
BBX 12 13 0 0
BITMAP
0000
3FF0
3FF0
01C0
01C0
0380
0380
0380
0380
0700
0700
0700
0700
ENDCHAR

STARTCHAR he
ENCODING 228
SWIDTH 566 0
DWIDTH 11 0
BBX 11 13 0 0
BITMAP
0000
3FC0
3FE0
00E0
00E0
01C0
71C0
71C0
71C0
E380
E380
E380
E380
ENDCHAR

STARTCHAR waw
ENCODING 229
SWIDTH 360 0
DWIDTH 7 0
BBX 6 13 1 0
BITMAP
00
7C
7C
1C
1C
38
38
38
38
70
70
70
70
ENDCHAR

STARTCHAR zayin
ENCODING 230
SWIDTH 463 0
DWIDTH 9 0
BBX 8 13 1 0
BITMAP
00
7F
7F
1C
1C
38
38
38
38
70
70
70
70
ENDCHAR

STARTCHAR het
ENCODING 231
SWIDTH 669 0
DWIDTH 13 0
BBX 12 13 1 0
BITMAP
0000
7FF0
7FF0
38E0
38E0
39C0
71C0
71C0
71C0
E380
E380
E380
E380
ENDCHAR

STARTCHAR teth
ENCODING 232
SWIDTH 720 0
DWIDTH 14 0
BBX 13 13 1 0
BITMAP
0000
79F0
7BF8
3BB8
3BB8
7038
7070
7070
E070
E0E0
E0E0
FFC0
7FC0
ENDCHAR

STARTCHAR yod
ENCODING 233
SWIDTH 360 0
DWIDTH 7 0
BBX 7 9 0 4
BITMAP
00
3E
3E
0E
0E
1C
1C
1C
00
ENDCHAR

STARTCHAR kaphfinal
ENCODING 234
SWIDTH 566 0
DWIDTH 11 0
BBX 11 17 0 -4
BITMAP
0000
7FE0
7FE0
0380
0380
0700
0700
0700
0700
0E00
0E00
0E00
1C00
1C00
1F00
1F00
0000
ENDCHAR

STARTCHAR kaph
ENCODING 235
SWIDTH 566 0
DWIDTH 11 0
BBX 11 13 0 0
BITMAP
0000
1FE0
1FE0
00E0
00E0
00E0
01C0
01C0
01C0
0380
0380
FF80
FF00
ENDCHAR

STARTCHAR lamed
ENCODING 236
SWIDTH 514 0
DWIDTH 10 0
BBX 10 15 0 0
BITMAP
3800
3800
7000
7FC0
7FC0
01C0
01C0
01C0
0380
0700
0E00
1C00
3800
3E00
3E00
ENDCHAR

STARTCHAR memfinal
ENCODING 237
SWIDTH 617 0
DWIDTH 12 0
BBX 12 13 0 0
BITMAP
0000
7FF0
7FF0
3870
3870
70E0
70E0
70E0
70E0
E1C0
E1C0
FFC0
FF80
ENDCHAR

STARTCHAR mem
ENCODING 238
SWIDTH 669 0
DWIDTH 13 0
BBX 13 13 0 0
BITMAP
0000
3CF0
3DF8
1F78
1C38
1C38
3870
3870
3870
70E0
70E0
77E0
77C0
ENDCHAR

STARTCHAR nunfinal
ENCODING 239
SWIDTH 309 0
DWIDTH 6 0
BBX 6 17 0 -4
BITMAP
00
7C
7C
1C
1C
38
38
38
38
70
70
70
E0
E0
F8
F8
00
ENDCHAR

STARTCHAR nun
ENCODING 240
SWIDTH 411 0
DWIDTH 8 0
BBX 8 14 0 -1
BITMAP
00
1F
1F
07
07
0E
0E
0E
0E
1C
1C
FC
F8
00
ENDCHAR

STARTCHAR samekh
ENCODING 241
SWIDTH 669 0
DWIDTH 13 0
BBX 13 13 0 0
BITMAP
0000
3FF8
3FF8
1C38
1C38
3838
3870
3870
70E0
70E0
71C0
7F80
3E00
ENDCHAR

STARTCHAR ayin
ENCODING 242
SWIDTH 617 0
DWIDTH 12 0
BBX 12 14 0 -1
BITMAP
0000
1EF0
1EF0
0E70
0E70
1CE0
1CE0
1CE0
39C0
39C0
3BC0
FF80
FE00
0000
ENDCHAR

STARTCHAR pefinal
ENCODING 243
SWIDTH 514 0
DWIDTH 10 0
BBX 10 16 0 -3
BITMAP
0000
7FC0
7FC0
71C0
71C0
E380
F380
F380
0700
0700
0700
0700
0E00
0E00
0F80
0F80
ENDCHAR

STARTCHAR pe
ENCODING 244
SWIDTH 566 0
DWIDTH 11 0
BBX 11 13 0 0
BITMAP
0000
3FE0
3FE0
38E0
38E0
71C0
79C0
79C0
01C0
0380
0380
FF80
FF00
ENDCHAR

STARTCHAR zadikfinal
ENCODING 245
SWIDTH 566 0
DWIDTH 11 0
BBX 11 17 0 -4
BITMAP
0000
7DE0
7DE0
1CE0
1CE0
38E0
39C0
3F80
3E00
7000
7000
7000
E000
E000
F800
F800
0000
ENDCHAR

STARTCHAR zadik
ENCODING 246
SWIDTH 669 0
DWIDTH 13 0
BBX 12 13 1 0
BITMAP
0000
7DE0
7DF0
1C70
1CE0
1DC0
1F80
0F00
0E00
0700
0700
FF00
FE00
ENDCHAR

STARTCHAR kof
ENCODING 247
SWIDTH 617 0
DWIDTH 12 0
BBX 12 16 0 -3
BITMAP
0000
3FF0
3FF0
0070
0070
3870
38E0
39C0
3B80
7700
7700
77C0
77C0
E000
E000
E000
ENDCHAR

STARTCHAR resh
ENCODING 248
SWIDTH 514 0
DWIDTH 10 0
BBX 10 13 0 0
BITMAP
0000
3FC0
3FC0
01C0
01C0
0380
0380
0380
0380
0700
0700
0700
0700
ENDCHAR

STARTCHAR shin
ENCODING 249
SWIDTH 771 0
DWIDTH 15 0
BBX 15 13 0 0
BITMAP
0000
3DDE
3DDE
39CE
39CE
739C
739C
739C
E738
E738
E738
FFF0
7FC0
ENDCHAR

STARTCHAR taf
ENCODING 250
SWIDTH 669 0
DWIDTH 13 0
BBX 13 13 0 0
BITMAP
0000
1FF8
1FF8
0E38
0E38
1C70
1C70
1C70
1C70
38E0
38E0
F8E0
F0E0
ENDCHAR
ENDFONT
